<svg width="80" height="80" viewBox="0 0 80 80" fill="none" xmlns="http://www.w3.org/2000/svg">
<path d="M10 80C4.47715 80 0 75.5229 0 70V10C0 4.47715 4.47715 0 10 0H70C75.5229 0 80 4.47715 80 10V70C80 75.5229 75.5229 80 70 80H10Z" fill="#FFD600"/>
<path d="M49.0377 56.1395C50.4794 58.4812 52.046 60.7249 55.3647 60.7249C58.1523 60.7249 59.6147 59.3395 59.6147 57.4228C59.6147 55.1291 58.1022 54.3145 55.0355 52.9791L53.3544 52.2624C48.5023 50.2041 45.2752 47.6249 45.2752 42.177C45.2752 37.1562 49.1188 33.3353 55.1251 33.3353C59.4022 33.3353 62.4752 34.8166 64.6919 38.6958L59.4543 42.0437C58.3022 39.9853 57.0564 39.1749 55.1251 39.1749C53.1544 39.1749 51.9064 40.4187 51.9064 42.0437C51.9064 44.052 53.1564 44.8645 56.0419 46.1083L57.723 46.8249C63.4418 49.2603 66.6669 51.7478 66.6669 57.3395C66.6669 63.3645 61.9084 66.6666 55.5209 66.6666C49.273 66.6666 45.7251 63.5312 43.7502 59.6499L49.0377 56.1395ZM24.9001 56.3103C25.9543 58.1978 27.5563 59.6499 29.8605 59.6499C32.0647 59.6499 33.3335 58.7791 33.3335 55.3937V33.3333H40.2772V56.4603C40.2772 63.4749 36.2085 66.6666 30.2668 66.6666C24.898 66.6666 21.023 63.0291 19.4438 59.6499L24.9001 56.3103Z" fill="#000001"/>
</svg>
