<svg width="75" height="75" viewBox="0 0 75 75" fill="none" xmlns="http://www.w3.org/2000/svg">
<path d="M70.8333 0H4.1667C1.8646 0 0 1.8646 0 4.1667V70.8333C0 73.1354 1.8646 75 4.1667 75H70.8333C73.1354 75 75 73.1354 75 70.8333V4.1667C75 1.8646 73.1354 0 70.8333 0Z" fill="url(#paint0_linear_29_141)"/>
<path opacity="0.05" d="M68.3731 51.2625C66.6772 49.0438 64.4168 47.7563 62.2252 46.6979C61.5606 46.3771 60.8939 46.0625 60.2272 45.7479C58.8418 45.0958 57.4085 44.4208 56.0564 43.7C55.046 43.1604 55.2606 42.6396 55.3752 42.3583C55.4835 42.0938 55.9252 41.9083 56.4502 41.9083C56.6064 41.9083 56.7668 41.925 56.9252 41.9542C57.5168 42.0646 58.6252 43.0104 59.2043 43.8979L59.771 44.7646L60.3356 45.6312L61.2064 45.0708L62.0772 44.5104C62.2481 44.4 66.296 41.7979 67.8252 40.6896L68.4585 40.2313L69.0918 39.7729L68.8293 39.0375L68.5668 38.3021C68.4647 38.0146 65.9335 31.2604 55.6064 31.2604H55.5939C52.2377 31.3479 49.4022 32.5167 47.1231 34.7375C46.6439 35.2062 46.2189 35.7292 45.8377 36.2896V33.3333V32.2917V31.25H44.796H43.7502H16.6668H15.6252H14.5835V32.2917V33.3333V39.6542V40.6958V41.7375H15.6252H16.6668H24.9418V68.6917V69.7333V70.775H25.9835H27.0252H33.2606H34.2981H35.3356L35.3397 69.7375L35.3439 68.7L35.446 41.7375H43.7502H43.9043C43.8564 42.2333 43.8252 42.7354 43.8356 43.2437C43.9002 46.5208 45.2189 49.5542 47.4543 51.5646C48.9668 52.925 50.7147 53.8854 52.4064 54.8146L52.8522 55.0604C53.9793 55.6833 55.1356 56.2292 56.2522 56.7583C57.1397 57.1792 58.0043 57.5875 58.8502 58.0312C59.1647 58.1958 59.2897 58.4125 59.2772 58.7771C59.2627 59.2688 59.071 59.5375 58.5981 59.7375C57.8731 60.0437 57.1668 60.1979 56.496 60.1979C55.4877 60.1979 54.5085 59.8417 53.5814 59.1375C53.0856 58.7604 52.6002 58.1896 52.0835 57.5833C51.7897 57.2396 51.4918 56.8917 51.1752 56.5479L50.6064 55.9354L50.0377 55.3229L49.3168 55.7437L48.596 56.1646C46.7856 57.2208 42.671 59.6979 42.671 59.6979L41.7918 60.2271L40.9127 60.7562L41.4293 61.6438L41.946 62.5312C43.4314 65.0792 45.5106 67.2958 47.5106 68.4646C50.2835 70.0854 53.3127 70.9062 56.5147 70.9062C58.2585 70.9062 60.0877 70.6604 61.9522 70.1771C65.9772 69.1333 68.8939 66.5292 70.1647 62.8438C71.5022 58.9813 70.7981 54.4333 68.3731 51.2625Z" fill="black"/>
<path opacity="0.05" d="M55.6043 32.302H55.5918H55.5772C52.5335 32.3812 49.9335 33.452 47.8481 35.4833C45.9022 37.3812 44.8189 40.1999 44.8793 43.2228C44.9397 46.2145 46.1314 48.9728 48.1522 50.7916C49.5752 52.0708 51.271 53.0041 52.9106 53.9041L53.3564 54.1499C54.4564 54.7562 55.596 55.2978 56.7002 55.8207C57.5856 56.2395 58.471 56.6583 59.3356 57.1124C60.0043 57.4624 60.346 58.052 60.321 58.8145C60.2918 59.7103 59.8502 60.3458 59.0064 60.702C58.1523 61.0624 57.3106 61.2437 56.5002 61.2437C55.2606 61.2437 54.0668 60.8145 52.9543 59.9708C52.3689 59.527 51.846 58.9124 51.2939 58.2624C51.0106 57.9312 50.7231 57.5916 50.4147 57.2603L49.846 56.6478L49.1252 57.0687C47.3189 58.1228 43.2127 60.5957 43.2127 60.5957L42.3335 61.1249L42.8502 62.0124C44.2481 64.4124 46.1877 66.4895 48.0397 67.5707C50.6522 69.0957 53.5043 69.8707 56.5189 69.8707C58.1752 69.8707 59.9147 69.6374 61.6939 69.1749C65.3689 68.2207 68.0293 65.8541 69.1835 62.5103C70.4064 58.9645 69.7647 54.7999 67.546 51.8978C65.9835 49.852 63.8481 48.6416 61.7731 47.6374C61.1127 47.3187 60.4481 47.0041 59.7835 46.6916C58.3856 46.0333 56.9397 45.352 55.5647 44.6187C54.3772 43.9853 53.9668 43.0437 54.4085 41.9645C54.6856 41.2874 55.4668 40.8666 56.4481 40.8666C56.6668 40.8666 56.8918 40.8874 57.1168 40.9312C58.0981 41.1145 59.4168 42.3208 60.0752 43.3312L60.6397 44.1978L61.5106 43.6374C61.6814 43.527 65.7168 40.9312 67.2127 39.8499L67.846 39.3916L67.5835 38.6562C67.4918 38.3937 65.2064 32.302 55.6043 32.302Z" fill="black"/>
<path opacity="0.05" d="M44.7917 32.2917H43.75H16.6667H15.625V33.3334V39.6542V40.6959H16.6667H25.9833V68.6917V69.7334H27.025H33.2604H34.2979L34.3021 68.6959L34.4083 40.6959H43.75H44.7917V39.6542V33.3334V32.2917Z" fill="black"/>
<path d="M49.6498 57.9667C50.5873 58.9771 51.3352 60.0458 52.3248 60.7979C54.4727 62.4312 56.9019 62.7167 59.4102 61.6583C60.6164 61.15 61.3206 60.1667 61.3623 58.8458C61.3998 57.6792 60.8373 56.7229 59.8185 56.1875C57.856 55.1583 55.7977 54.3062 53.8581 53.2354C52.1206 52.2771 50.306 51.3271 48.8477 50.0146C44.9831 46.5354 44.9914 39.7188 48.5727 36.2292C50.5206 34.3313 52.8727 33.4146 55.6019 33.3438C64.581 33.3438 66.5998 39.0021 66.5998 39.0021C65.1102 40.0792 60.9456 42.7583 60.9456 42.7583C60.1998 41.6146 58.6748 40.1625 57.306 39.9042C55.5852 39.5813 53.9873 40.2354 53.4414 41.5667C52.8123 43.1021 53.3581 44.6208 55.0706 45.5354C57.1102 46.6229 59.231 47.5625 61.3144 48.5708C63.356 49.5583 65.3102 50.6917 66.7144 52.5271C70.2644 57.1708 69.5581 66.0563 61.4289 68.1646C56.9852 69.3167 52.6414 69.0542 48.5602 66.6688C46.6373 65.5458 44.8456 63.375 43.7456 61.4854C43.7498 61.4854 47.8477 59.0188 49.6498 57.9667Z" fill="white"/>
<path d="M16.6665 33.3333V39.6541H27.0248V68.6916H33.2603L33.3707 39.6541H43.7498V33.3333H16.6665Z" fill="white"/>
<defs>
<linearGradient id="paint0_linear_29_141" x1="0" y1="37.5" x2="75" y2="37.5" gradientUnits="userSpaceOnUse">
<stop stop-color="#0D61A9"/>
<stop offset="1" stop-color="#16528C"/>
</linearGradient>
</defs>
</svg>
