<svg width="88" height="92" viewBox="0 0 88 92" fill="none" xmlns="http://www.w3.org/2000/svg">
<path d="M43.6104 0L0 15.177L6.8917 71.6833L43.6562 91.6666L80.6104 71.4125L87.5 14.9083L43.6104 0Z" fill="#BDBDBD"/>
<path d="M82.9542 17.7645L43.75 4.44775V86.8644L76.7333 68.7853L82.9542 17.7645Z" fill="#B71C1C"/>
<path d="M43.6273 4.40625L4.54395 18.0084L10.7669 69.048L43.6481 86.9188L43.7502 86.8646V4.44792L43.6273 4.40625Z" fill="#DD2C00"/>
<path d="M43.75 8.32495V28.1333L61.6208 66.6666H70.8063L43.75 8.32495Z" fill="#BDBDBD"/>
<path d="M16.6938 66.6666H25.8793L43.7501 28.1333V8.32495L16.6938 66.6666Z" fill="#EEEEEE"/>
<path d="M43.75 45.8333H56.25V54.1666H43.75V45.8333Z" fill="#BDBDBD"/>
<path d="M31.25 45.8333H43.75V54.1666H31.25V45.8333Z" fill="#EEEEEE"/>
</svg>
