<svg width="71" height="80" viewBox="0 0 71 80" fill="none" xmlns="http://www.w3.org/2000/svg">
<path d="M70.8333 0H0L6.25 70.8334L35.4167 79.1667L64.5833 70.8334L70.8333 0Z" fill="#E65100"/>
<path d="M35.4165 6.25V72.7084L58.7498 66.0417L63.9582 6.25H35.4165Z" fill="#FF6D00"/>
<path d="M35.4165 41.6665V33.3331H53.3332L51.8748 57.2915L35.4165 62.7081V53.9581L43.9582 51.0415L44.5832 41.6665H35.4165ZM53.9582 24.9998L54.5832 16.6665H35.4165V24.9998H53.9582Z" fill="white"/>
<path d="M35.4163 53.9581V62.7081L18.958 57.2915L18.1247 45.8331H26.458L26.8747 51.0415L35.4163 53.9581ZM25.208 24.9998H35.4163V16.6665H16.458L17.9163 41.6665H35.4163V33.3331H25.833L25.208 24.9998Z" fill="#EEEEEE"/>
</svg>
