<svg width="67" height="76" viewBox="0 0 67 76" fill="none" xmlns="http://www.w3.org/2000/svg">
<path d="M8.3333 48.06C8.3333 50.3516 6.4583 52.2266 4.1667 52.2266C1.875 52.2266 0 50.3516 0 48.06V29.31C0 27.0183 1.875 25.1433 4.1667 25.1433C6.4583 25.1433 8.3333 27.0183 8.3333 29.31V48.06ZM66.6667 48.06C66.6667 50.3516 64.7917 52.2266 62.5 52.2266C60.2083 52.2266 58.3333 50.3516 58.3333 48.06V29.31C58.3333 27.0183 60.2083 25.1433 62.5 25.1433C64.7917 25.1433 66.6667 27.0183 66.6667 29.31V48.06ZM29.1667 70.9766C29.1667 73.2683 27.2917 75.1433 25 75.1433C22.7083 75.1433 20.8333 73.2683 20.8333 70.9766V52.2266C20.8333 49.935 22.7083 48.06 25 48.06C27.2917 48.06 29.1667 49.935 29.1667 52.2266V70.9766ZM45.8333 70.9766C45.8333 73.2683 43.9583 75.1433 41.6667 75.1433C39.375 75.1433 37.5 73.2683 37.5 70.9766V52.2266C37.5 49.935 39.375 48.06 41.6667 48.06C43.9583 48.06 45.8333 49.935 45.8333 52.2266V70.9766Z" fill="#7CB342"/>
<path d="M12.5 25.1435V56.3935C12.5 58.6851 14.375 60.5601 16.6667 60.5601H50C52.2917 60.5601 54.1667 58.6851 54.1667 56.3935V25.1435H12.5ZM33.3333 4.31006C20.8333 4.31006 13.125 11.8101 12.5 20.9768H54.1667C53.5417 11.8101 45.8333 4.31006 33.3333 4.31006ZM25 15.9768C23.75 15.9768 22.9167 15.1435 22.9167 13.8935C22.9167 12.6435 23.75 11.8101 25 11.8101C26.25 11.8101 27.0833 12.6435 27.0833 13.8935C27.0833 14.9351 26.25 15.9768 25 15.9768ZM41.6667 15.9768C40.4167 15.9768 39.5833 15.1435 39.5833 13.8935C39.5833 12.6435 40.4167 11.8101 41.6667 11.8101C42.9167 11.8101 43.75 12.6435 43.75 13.8935C43.75 14.9351 42.9167 15.9768 41.6667 15.9768Z" fill="#7CB342"/>
<path d="M42.292 9.51817C41.8753 9.51817 41.4587 9.30987 41.042 9.10157C40.0003 8.47657 39.792 7.22657 40.417 6.18487L43.9587 0.976571C44.5837 -0.0651287 45.8337 -0.273429 46.8753 0.351571C47.917 0.976571 48.1253 2.22657 47.5003 3.26817L43.9587 8.47657C43.7503 9.10157 43.1253 9.51817 42.292 9.51817ZM23.542 8.68487C22.917 8.68487 22.0837 8.26817 21.8753 7.64317L19.167 3.26817C18.542 2.22657 18.7503 0.976571 19.792 0.351571C20.8337 -0.273429 22.0837 -0.0651287 22.7087 0.976571L25.417 5.35157C26.042 6.39317 25.8337 7.64317 24.792 8.26817C24.3753 8.47657 23.9587 8.68487 23.542 8.68487Z" fill="#7CB342"/>
</svg>
