<svg width="71" height="80" viewBox="0 0 71 80" fill="none" xmlns="http://www.w3.org/2000/svg">
<path d="M70.8333 0H0L6.25 70.8334L35.4167 79.1667L64.5833 70.8334L70.8333 0Z" fill="#0277BD"/>
<path d="M35.4165 6.25V72.7084L58.7498 66.0417L63.9582 6.25H35.4165Z" fill="#039BE5"/>
<path d="M54.3748 16.6665H35.4165V24.9998H45.6248L44.9998 33.3331H35.4165V41.6665H44.5832L43.9582 51.0415L35.4165 53.9581V62.7081L51.8748 57.2915L53.3332 33.3331L54.3748 16.6665Z" fill="white"/>
<path d="M35.4167 16.6665V24.9998H16.875L16.25 16.6665H35.4167ZM25.8333 33.3331L26.25 41.6665H35.4167V33.3331H25.8333ZM26.6667 45.8331H18.3333L18.9583 57.2915L35.4167 62.7081V53.9581L26.875 51.0415L26.6667 45.8331Z" fill="#EEEEEE"/>
</svg>
