<svg width="80" height="90" viewBox="0 0 80 90" fill="none" xmlns="http://www.w3.org/2000/svg">
<path d="M39.5979 89.2469C38.4021 89.2469 37.2167 88.9344 36.1688 88.3302L25.2521 81.8656C23.6208 80.9531 24.4167 80.6302 24.9542 80.4448C27.1292 79.6844 27.5688 79.5114 29.8896 78.1927C30.1333 78.0531 30.4521 78.1031 30.7021 78.251L39.0896 83.2281C39.3917 83.3927 39.8229 83.3927 40.1021 83.2281L72.8042 64.351C73.1063 64.1781 73.3042 63.8281 73.3042 63.4677V25.7323C73.3042 25.3552 73.1083 25.0198 72.7979 24.8323L40.1104 5.96982C39.8083 5.79062 39.4063 5.79062 39.1042 5.96982L6.4208 24.8302C6.1042 25.0094 5.9021 25.3614 5.9021 25.7219V63.4594C5.9021 63.8198 6.0979 64.1635 6.4104 64.3344L15.3667 69.5073C20.2292 71.9385 23.2 69.0739 23.2 66.1927V28.9489C23.2 28.4177 23.6167 28.0073 24.15 28.0073H28.2917C28.8083 28.0073 29.2333 28.4156 29.2333 28.9489V66.2114C29.2333 72.6948 25.6979 76.4198 19.55 76.4198C17.6583 76.4198 16.1688 76.4198 12.0104 74.3739L3.4313 69.4302C1.3104 68.201 0 65.9073 0 63.4614V25.7239C0 23.2677 1.3104 20.976 3.4292 19.7635L36.1667 0.878123C38.2375 -0.292708 40.9875 -0.292708 43.0438 0.878123L75.7396 19.7719C77.8479 20.9906 79.1667 23.276 79.1667 25.7323V63.4698C79.1667 65.9177 77.8479 68.201 75.7375 69.4302L43.0417 88.3135C41.9938 88.9198 40.8063 89.2302 39.5958 89.2302" fill="#21A366"/>
<path d="M49.6999 63.2428C35.3916 63.2428 32.3916 56.674 32.3916 51.1657C32.3916 50.6428 32.8145 50.224 33.3395 50.224H37.5645C38.0312 50.224 38.4249 50.5636 38.4979 51.024C39.1354 55.3282 41.0354 57.499 49.6874 57.499C56.5791 57.499 59.5104 55.9428 59.5104 52.2865C59.5104 50.1823 58.6749 48.6198 47.9687 47.5719C39.0124 46.6886 33.4791 44.7157 33.4791 37.5532C33.4791 30.9553 39.0458 27.0261 48.3687 27.0261C58.8395 27.0261 64.0291 30.6615 64.6833 38.4698C64.7083 38.7407 64.6104 39.0011 64.4291 39.199C64.2499 39.3865 63.9958 39.5011 63.7333 39.5011H59.4854C59.0437 39.5011 58.6583 39.1907 58.5687 38.7636C57.5458 34.2365 55.0729 32.7886 48.352 32.7886C40.8291 32.7886 39.9541 35.4073 39.9541 37.3719C39.9541 39.7532 40.9854 40.449 51.1354 41.7928C61.1874 43.1261 65.9604 45.0094 65.9604 52.074C65.9604 59.1948 60.0166 63.2803 49.6541 63.2803" fill="#21A366"/>
</svg>
