<svg width="100" height="55" viewBox="0 0 100 55" fill="none" xmlns="http://www.w3.org/2000/svg">
<path d="M0.00416667 50.0018H4.00417V35.2414L9.56042 47.8601C10.2458 49.433 11.1833 49.9893 13.0229 49.9893C14.8625 49.9893 15.7625 49.433 16.4479 47.8601L22.0042 35.5643V50.0018H26.0042V34.8809C26.0042 33.4289 25.4271 32.7247 24.2354 32.3622C21.3875 31.4664 19.475 32.2393 18.6104 34.1789L12.9125 47.0122L7.39375 34.1789C6.56458 32.2414 4.61875 31.4664 1.76875 32.3622C0.577083 32.7247 0 33.4268 0 34.8789V49.9997H0.00416667V50.0018Z" fill="#00796B"/>
<path d="M28.002 38.002H32.002V46.4499C31.9707 46.8666 32.1353 47.9727 34.0645 48.0019C35.0478 48.0186 39.9415 48.0019 40.002 48.0019V38.002H44.002C44.0186 38.002 44.002 50.4353 44.002 50.4874C44.0228 53.5541 40.1936 53.9498 38.4332 54.0019H28.004V52.0019C28.0249 52.0019 37.977 52.004 38.0061 52.0019C40.2728 51.7623 40.004 50.5145 40.004 50.1353V50.0019H33.729C30.2499 49.9706 28.0311 48.4373 28.0061 46.6894C28.002 46.5269 28.0811 38.077 28.002 38.002Z" fill="#00796B"/>
<path d="M46.0019 50.0019H56.0164C57.3289 50.0019 58.6039 49.7269 59.6164 49.2519C61.3039 48.4769 61.9998 47.4291 61.9998 46.052V43.202C61.9998 40.127 58.1873 40.002 55.9998 40.002H51.9998C50.4269 40.002 50.1873 39.052 49.9998 38.002V36.002C50.1873 35.202 50.5373 34.127 51.9227 34.002C53.5331 34.002 61.9977 34.002 61.9977 34.002V32.002H52.4852C50.9123 32.002 45.9977 32.1895 45.9977 36.002V38.4749C45.9977 40.2249 47.5352 41.6499 50.8727 41.9999C51.2477 42.0249 51.6227 42.0499 51.9956 42.0499C51.9956 42.0499 55.8831 41.9749 55.9956 41.9999C58.2456 41.9999 57.9956 43.7499 57.9956 43.9999V45.9999C57.9956 46.2749 57.9331 47.9999 55.9727 47.9999C55.8227 47.9999 45.9956 47.9999 45.9956 47.9999V50.0019H46.0019Z" fill="#F57F17"/>
<path d="M84 45.9165C84 48.3311 85.3646 49.6852 88.9833 49.9561C89.3208 49.979 89.6604 49.9998 90 49.9998H100V47.9998H90.7604C88.6958 47.9998 88 47.1331 88 45.8936V31.9998H84V45.9165Z" fill="#F57F17"/>
<path d="M63.9668 46.0019V36.002C63.9668 33.877 65.0085 32.4103 67.9585 32.002H69.3585H76.5397H77.6335C80.5835 32.4103 81.9668 33.8749 81.9668 36.002V45.9645C81.9668 47.6874 81.5189 48.6124 80.0585 49.2124L83.1585 51.9999H78.6585L76.4293 49.9999H73.8105L69.3605 50.0249C68.7168 50.0249 68.0376 49.9353 67.2918 49.7312C65.0543 49.1207 63.9668 47.9456 63.9668 46.0019ZM67.9668 46.0019C68.171 46.9748 68.9522 48.0019 70.3418 48.0019H74.2251L72.0001 46.0019H76.5314L77.6126 47.0062C77.6126 47.0062 78.0001 46.6894 78.0001 46.0019C78.0001 45.3144 77.9668 36.002 77.9668 36.002C77.7626 35.0978 76.846 34.002 75.4918 34.002H70.3439C68.7835 34.002 67.9689 35.1437 67.9689 36.2062L67.9668 46.0019Z" fill="#F57F17"/>
<path d="M96.2477 29.8936C94.0998 29.8353 92.4602 30.0353 91.0581 30.6249C90.6602 30.7936 90.0248 30.7978 89.9581 31.2978C90.1769 31.527 90.2102 31.8707 90.3852 32.152C90.7186 32.6936 91.2852 33.4207 91.7894 33.7999C92.3415 34.2166 92.9102 34.6624 93.4998 35.0228C94.5498 35.6624 95.7227 36.0291 96.7352 36.6707C97.3311 37.0478 97.9227 37.527 98.5061 37.952C98.7936 38.1645 98.9852 38.4916 99.3602 38.6249C99.3602 38.6041 99.3602 38.5853 99.3602 38.5645C99.1644 38.3145 99.1123 37.9707 98.9331 37.7082C98.6686 37.4436 98.404 37.1791 98.1394 36.9145C97.3644 35.8853 96.3769 34.9791 95.3311 34.2291C94.4956 33.6291 92.6269 32.8186 92.2769 31.8478C92.2561 31.827 92.2373 31.8082 92.2144 31.7853C92.8061 31.7186 93.4998 31.5041 94.0456 31.3582C94.9644 31.1124 95.7831 31.177 96.7311 30.9311C97.1581 30.8082 97.5852 30.6874 98.0123 30.5645C98.0123 30.4832 98.0123 30.402 98.0123 30.3207C97.5331 29.8291 97.1894 29.1791 96.6686 28.7332C95.2998 27.5686 93.8081 26.4061 92.2727 25.4353C91.4206 24.8978 90.3665 24.5478 89.4644 24.0916C89.1602 23.9374 88.6269 23.8582 88.4269 23.6041C87.9519 22.9999 87.6956 22.2311 87.329 21.5291C86.5623 20.0541 85.8081 18.4416 85.1311 16.8895C84.6665 15.8311 84.3644 14.7853 83.7873 13.8353C81.0144 9.27697 78.029 6.52487 73.4081 3.82067C72.4248 3.24567 71.2394 3.01857 69.9873 2.72067C69.3144 2.68107 68.6436 2.63947 67.9706 2.59777C67.5602 2.42487 67.1352 1.92487 66.7477 1.68107C65.2165 0.712368 61.2873 -1.39183 60.154 1.37487C59.4373 3.12067 61.2248 4.82487 61.8644 5.71027C62.3123 6.33107 62.8873 7.02697 63.2081 7.72697C63.4186 8.18527 63.4561 8.64567 63.6352 9.13107C64.079 10.327 64.7811 11.6895 65.3561 12.7957C65.6456 13.3561 65.9665 13.9436 66.3331 14.4436C66.5581 14.7499 66.9436 14.8853 67.0061 15.3603C66.629 15.8874 66.6081 16.7061 66.3956 17.377C65.4415 20.3874 65.8019 24.127 67.1894 26.352C67.6144 27.0353 68.6186 28.502 69.9977 27.9395C71.204 27.4478 70.9352 25.9249 71.279 24.5811C71.3561 24.277 71.3081 24.0541 71.4623 23.8499C71.4623 23.8707 71.4623 23.8895 71.4623 23.9124C71.829 24.6436 72.1936 25.3791 72.5623 26.1103C73.3769 27.4207 74.8206 28.7895 76.0415 29.7145C76.6748 30.1936 77.1748 31.0228 77.9956 31.302C77.9956 31.2811 77.9956 31.2624 77.9956 31.2395C77.9748 31.2395 77.9561 31.2395 77.9331 31.2395C77.7748 30.9916 77.5248 30.8895 77.3227 30.6895C76.8456 30.2207 76.3123 29.6395 75.9186 29.102C74.8061 27.5916 73.8227 25.9374 72.9269 24.2166C72.4998 23.3936 72.1269 22.4895 71.7665 21.652C71.6269 21.3291 71.629 20.8416 71.3394 20.6749C70.9436 21.2874 70.3644 21.7832 70.0581 22.5061C69.5706 23.6624 69.5061 25.0749 69.3269 26.5353C69.2186 26.5728 69.2665 26.5478 69.204 26.5957C68.354 26.3895 68.054 25.5166 67.7373 24.7645C66.9373 22.8645 66.7894 19.8061 67.4936 17.6207C67.6748 17.0541 68.4977 15.2728 68.1665 14.7499C68.0081 14.227 67.4831 13.9249 67.1915 13.527C66.8269 13.0353 66.4665 12.3853 66.2144 11.8166C65.5602 10.3353 64.9394 8.61237 64.2498 7.11447C63.9206 6.39777 63.3644 5.67487 62.9061 5.03947C62.3998 4.33527 61.8311 3.81657 61.4394 2.96447C61.2998 2.66237 61.1102 2.17697 61.3165 1.86447C61.3831 1.65407 61.4748 1.56657 61.6831 1.49777C62.0373 1.22277 63.0227 1.58737 63.3936 1.74157C64.3727 2.14777 65.1894 2.53527 66.0186 3.08527C66.4165 3.34987 66.8186 3.86027 67.2998 4.00197C67.4831 4.00197 67.6665 4.00197 67.8498 4.00197C68.7102 4.19987 69.6727 4.06447 70.4748 4.30817C71.8956 4.73947 73.1665 5.41027 74.3206 6.13947C77.8415 8.36237 80.7186 11.5249 82.6873 15.2999C83.004 15.9082 83.1415 16.4874 83.4186 17.1311C83.9811 18.4311 84.6915 19.7686 85.2498 21.0395C85.8081 22.3082 86.354 23.5874 87.1436 24.6436C87.5602 25.1978 89.1644 25.4957 89.8915 25.8041C90.4019 26.0207 91.2394 26.2436 91.7227 26.5353C92.6477 27.0936 93.5436 27.7582 94.4081 28.3666C94.8498 28.6728 96.1811 29.3416 96.2477 29.8936Z" fill="#00796B"/>
<path d="M68.954 6.63094C68.5061 6.62264 68.1894 6.67884 67.854 6.75384C67.854 6.77464 67.854 6.79344 67.854 6.81634C67.8748 6.81634 67.8936 6.81634 67.9165 6.81634C68.1311 7.25384 68.5061 7.53924 68.7707 7.91634C68.9748 8.34344 69.1769 8.77054 69.3811 9.19764C69.4019 9.17674 69.4207 9.15804 69.4415 9.13714C69.8186 8.87054 69.9936 8.44554 69.9915 7.79344C69.8394 7.63304 69.8165 7.43304 69.6853 7.24344C69.5103 6.98714 69.1728 6.84344 68.954 6.63094Z" fill="#00796B"/>
</svg>
