<svg width="75" height="75" viewBox="0 0 75 75" fill="none" xmlns="http://www.w3.org/2000/svg">
<path d="M37.5 0L24.9792 13.2292L12.4375 26.4375L0 39.5833V0H37.5Z" fill="#0D91D6"/>
<path d="M37.5 0H37.4167L24.9375 13.1875L12.4167 26.4167L0 39.5208V39.5833V39.7708V75L18.1042 56.8958L30.9792 44.0208L43.875 31.125L56.7708 18.2292L75 0H37.5Z" fill="#F88909"/>
<path d="M18.1042 56.8957L0 74.9999V39.7708L18.1042 56.8957Z" fill="#C757BC"/>
<path d="M30.9792 44.0208L18.1042 56.8958L0 39.7708V39.5833L12.4375 26.4375L30.9792 44.0208Z" fill="#D3638F"/>
<path d="M43.875 31.1251L30.9792 44.0209L12.4375 26.4376L24.9792 13.2292L43.875 31.1251Z" fill="#E07063"/>
<path d="M56.7707 18.2292L43.8748 31.125L24.979 13.2292L37.4998 0L56.7707 18.2292Z" fill="#EC7D36"/>
<path d="M75 0L56.7708 18.2292L37.5 0H75Z" fill="#F88909"/>
<path d="M11.4792 27.3959L4.1458 35.1667L0 31.2501V16.5417L11.4792 27.3959Z" fill="#0095D5"/>
<path d="M18.8125 19.625L11.4792 27.3958L0 16.5417V1.8125L18.8125 19.625Z" fill="#2B88DA"/>
<path d="M26.1667 11.875L18.8125 19.625L0 1.8125V0H13.6042L26.1667 11.875Z" fill="#557BDE"/>
<path d="M33.4998 4.1042L26.1665 11.875L13.604 0H37.4998L33.4998 4.1042Z" fill="#806EE3"/>
<path d="M35.4167 39.5833L0 74.9999H6.9792H24H70.8333L35.4167 39.5833Z" fill="#0095D5"/>
<path d="M41 74.9999H24L12 63.0208L20.5 54.5208L41 74.9999Z" fill="#2B88DA"/>
<path d="M58.0417 74.9999H41L20.5 54.5206L29 46.0208L58.0417 74.9999Z" fill="#557BDE"/>
<path d="M75 75H58.0417L29 46.0208L37.5 37.5L75 75Z" fill="#806EE3"/>
</svg>
