<svg width="63" height="84" viewBox="0 0 63 84" fill="none" xmlns="http://www.w3.org/2000/svg">
<path d="M30.5207 43.5396C28.4415 40.1875 26.9332 37.4083 24.8436 32.175C21.3103 23.3354 46.3332 15.3479 36.1873 0C40.5853 10.6021 20.4019 17.1562 18.5269 25.9854C16.8123 34.1062 30.5103 43.5396 30.5207 43.5396Z" fill="#F44336"/>
<path d="M30.9957 27.6479C30.5957 32.8896 35.6395 35.6833 35.7853 39.5125C35.902 42.6292 32.7707 45.2271 32.7707 45.2271C32.7707 45.2271 38.4541 44.1104 40.227 39.3562C42.1957 34.0771 36.4061 30.4625 37.002 26.2354C37.5582 22.1979 49.5666 14.6875 49.5666 14.6875C49.5666 14.6875 31.8978 15.8583 30.9957 27.6479Z" fill="#F44336"/>
<path d="M48.0914 43.8666C51.7456 43.0457 54.8269 45.3728 54.8269 48.0541C54.8269 54.0978 46.4498 59.8103 46.4498 59.8103C46.4498 59.8103 59.4185 58.2645 59.4185 48.3415C59.4185 41.779 53.0498 40.1395 48.0914 43.8666ZM41.9352 48.7416C41.9352 48.7416 45.9789 45.8603 47.056 44.7791C37.1331 46.8853 14.4769 47.1686 14.4769 45.3395C14.4769 43.654 21.7831 41.927 21.7831 41.927C21.7831 41.927 5.58936 41.6936 5.58936 46.4707C5.58936 51.4499 26.7873 51.8061 41.9352 48.7416Z" fill="#1565C0"/>
<path d="M39.4478 53.2748C30.0541 56.3977 12.752 55.3998 17.877 51.2061C15.3812 51.2061 11.6812 53.2123 11.6812 55.1415C11.6812 59.0102 30.3937 61.9977 44.2437 56.3331L39.4478 53.2748Z" fill="#1565C0"/>
<path d="M20.179 59.875C16.7707 59.875 14.5645 62.0708 14.5645 63.6708C14.5645 68.6521 34.8978 69.1542 42.954 64.0979L37.8332 60.6979C31.8145 63.3437 16.6957 63.7083 20.179 59.875Z" fill="#1565C0"/>
<path d="M56.8354 67.9854C56.8354 66.0354 54.6375 65.1167 53.85 64.6771C58.4917 75.8708 7.3563 75.0021 7.3563 68.3937C7.3563 66.8917 11.1208 65.4208 14.6 66.1167L11.6417 64.3687C4.7083 63.2812 0 66.3292 0 68.7875C0 80.2521 56.8354 79.7 56.8354 67.9854Z" fill="#1565C0"/>
<path d="M62.5001 72.0937C53.8626 80.625 31.9605 83.7333 9.93555 78.4625C31.9605 87.8437 62.396 82.5604 62.5001 72.0937Z" fill="#1565C0"/>
</svg>
