<svg width="71" height="84" viewBox="0 0 71 84" fill="none" xmlns="http://www.w3.org/2000/svg">
<path d="M35.4167 0L0 20.8333V62.5L35.4167 83.3334L70.8333 62.5V20.8333L35.4167 0Z" fill="#ECEFF1"/>
<path d="M34.3748 42.7084V61.4585L16.6665 52.0834V32.2917L34.3748 42.7084Z" fill="#0277BD"/>
<path d="M36.458 42.7084V61.4585L54.1663 52.0834V32.2917L36.458 42.7084Z" fill="#0277BD"/>
<path d="M35.4163 40.6251L17.708 30.2084L35.4163 20.8334L53.1247 30.2084L35.4163 40.6251Z" fill="#0277BD"/>
<path d="M34.3747 6.25006V18.7501L15.6247 29.1667L5.20801 22.9167L34.3747 6.25006Z" fill="#81D4FA"/>
<path d="M34.3747 77.0835V64.5835L15.6247 54.1667L5.20801 60.4167L34.3747 77.0835Z" fill="#81D4FA"/>
<path d="M14.5832 31.2501L4.1665 25.0001V58.3334L14.5832 52.0834V31.2501Z" fill="#81D4FA"/>
<path d="M36.458 6.25006V18.7501L55.208 29.1667L65.6247 22.9167L36.458 6.25006Z" fill="#81D4FA"/>
<path d="M36.458 77.0835V64.5835L55.208 54.1667L65.6247 60.4167L36.458 77.0835Z" fill="#81D4FA"/>
<path d="M56.25 31.2501L66.6667 25.0001V58.3334L56.25 52.0834V31.2501Z" fill="#81D4FA"/>
</svg>
