<svg width="96" height="86" viewBox="0 0 96 86" fill="none" xmlns="http://www.w3.org/2000/svg">
<path d="M47.9167 63.6437C21.0417 63.6437 0 54.4771 0 42.8104C0 31.1437 21.0417 21.977 47.9167 21.977C74.7917 21.977 95.8333 31.1437 95.8333 42.8104C95.8333 54.4771 74.7917 63.6437 47.9167 63.6437ZM47.9167 26.1437C21.6667 26.1437 4.16666 34.6854 4.16666 42.8104C4.16666 50.9354 21.6667 59.4771 47.9167 59.4771C74.1667 59.4771 91.6667 50.9354 91.6667 42.8104C91.6667 34.6854 74.1667 26.1437 47.9167 26.1437Z" fill="#80DEEA"/>
<path d="M29.3748 85.727C27.2915 85.727 25.6248 85.3104 23.9581 84.2687C13.7498 78.4354 16.4581 55.727 29.7915 32.3937C36.0415 21.5604 43.7498 12.3937 51.2498 6.5604C59.3748 0.310384 66.6665 -1.56462 71.6665 1.35205C76.8748 4.2687 78.7498 11.5604 77.4998 21.7687C76.2498 31.352 72.0831 42.602 65.8331 53.4354C59.5831 64.2687 51.8748 73.4354 44.3748 79.2687C38.9581 83.4354 33.7498 85.727 29.3748 85.727ZM66.4581 4.0604C63.1248 4.0604 58.7498 5.9354 53.9581 9.6854C46.8748 15.3104 39.5831 24.0604 33.5415 34.477C20.4165 57.1854 19.1665 76.7687 26.0415 80.727C29.5831 82.8104 35.4165 80.9354 41.8748 75.9354C48.9581 70.3104 56.2498 61.5604 62.2915 51.1437C68.3331 40.727 72.2915 30.102 73.5415 21.1437C74.5831 12.8104 73.3331 6.977 69.7915 4.8937C68.7498 4.477 67.7081 4.0604 66.4581 4.0604Z" fill="#80DEEA"/>
<path d="M66.6663 85.7269C56.2497 85.7269 41.2497 73.0185 29.9997 53.2269C16.458 29.8935 13.7497 7.1852 23.958 1.35187C34.1663 -4.48146 52.4997 9.0602 66.0413 32.3935C72.2913 43.2269 76.458 54.4769 77.708 64.0602C79.1663 74.2685 77.083 81.3519 71.8747 84.4769C70.208 85.3102 68.5413 85.7269 66.6663 85.7269ZM26.0413 4.8935C19.1663 8.8519 20.4163 28.4352 33.5413 51.1435C46.6663 73.8519 62.9163 84.6852 69.7913 80.7269C73.333 78.6435 74.583 72.8102 73.5413 64.4769C72.2913 55.5185 68.333 44.8935 62.2913 34.4769C49.1663 11.7685 32.9163 0.935202 26.0413 4.8935Z" fill="#80DEEA"/>
<path d="M47.9163 51.1437C52.5187 51.1437 56.2497 47.4128 56.2497 42.8104C56.2497 38.208 52.5187 34.477 47.9163 34.477C43.314 34.477 39.583 38.208 39.583 42.8104C39.583 47.4128 43.314 51.1437 47.9163 51.1437Z" fill="#80DEEA"/>
</svg>
