<svg width="80" height="80" viewBox="0 0 80 80" fill="none" xmlns="http://www.w3.org/2000/svg">
<path d="M40.5926 0.000152434C37.353 0.0105524 35.1072 0.295952 32.3926 0.764652C24.3759 2.16055 22.9155 5.09175 22.9155 10.4939V18.7502H41.6655V22.9168H22.203H13.1405C7.64882 22.9168 2.84262 25.5043 1.31972 31.7064C-0.40115 38.8252 -0.47824 43.2835 1.31972 50.7168C2.68422 56.2606 5.69052 60.4167 11.1842 60.4167H18.7509V49.7835C18.7509 43.6043 24.3467 37.5001 30.7592 37.5001H45.8342C51.0905 37.5001 56.2509 33.621 56.2509 28.3814V10.4939C56.2509 5.41265 52.5863 1.61265 47.4634 0.760552C47.5905 0.748052 43.8051 -0.0123476 40.5926 0.000152434ZM30.2092 8.33345C31.9197 8.33345 33.3342 9.74385 33.3342 11.4627C33.3342 13.1981 31.9197 14.5835 30.2092 14.5835C28.4655 14.5835 27.0842 13.2002 27.0842 11.4627C27.0842 9.75015 28.4655 8.33345 30.2092 8.33345Z" fill="#0277BD"/>
<path d="M38.5738 79.1668C41.8134 79.1564 44.0592 78.871 46.7738 78.4022C54.7905 77.0064 56.2509 74.0751 56.2509 68.6731V60.4168H37.5009V56.2501H56.9655H66.028C71.5197 56.2501 76.3259 53.6626 77.8488 47.4606C79.5697 40.3418 79.6468 35.8835 77.8488 28.4501C76.4822 22.9064 73.4759 18.7501 67.9822 18.7501H60.4155V29.3835C60.4155 35.5626 54.8197 41.6668 48.4072 41.6668H33.3322C28.0759 41.6668 22.9155 45.546 22.9155 50.7856V68.6731C22.9155 73.7543 26.5801 77.5543 31.703 78.4064C31.5759 78.4189 35.3613 79.1793 38.5738 79.1668ZM48.9592 70.8335C47.2488 70.8335 45.8342 69.4231 45.8342 67.7043C45.8342 65.9689 47.2488 64.5835 48.9592 64.5835C50.703 64.5835 52.0842 65.9668 52.0842 67.7043C52.0842 69.4168 50.7009 70.8335 48.9592 70.8335Z" fill="#FFC107"/>
</svg>
