<svg width="92" height="69" viewBox="0 0 92 69" fill="none" xmlns="http://www.w3.org/2000/svg">
<path d="M78.8899 39.4928C75.6857 39.5094 72.9107 40.2782 70.5857 41.4261C69.7357 39.7282 68.8732 38.2344 68.7294 37.124C68.5607 35.8282 68.3648 35.0532 68.569 33.5094C68.7732 31.9657 69.6669 29.7782 69.6544 29.6136C69.6419 29.449 69.4544 28.6636 67.6065 28.649C65.7586 28.6365 64.1774 29.0053 63.9919 29.4928C63.8065 29.9803 63.4503 31.0782 63.2294 32.224C62.9065 33.899 59.5399 39.8761 57.6294 43.0011C57.0044 41.7803 56.4732 40.7053 56.3628 39.8553C56.194 38.5594 55.9982 37.7844 56.2024 36.2407C56.4065 34.6969 57.3003 32.5094 57.2878 32.3449C57.2753 32.1803 57.0878 31.3949 55.2399 31.3803C53.3919 31.3678 51.8107 31.7365 51.6253 32.224C51.4399 32.7115 51.2399 33.8511 50.8628 34.9553C50.4836 36.0574 46.0107 46.0261 44.8378 48.6115C44.2399 49.9282 43.7211 50.9865 43.3544 51.7074C43.3524 51.7053 43.3524 51.7032 43.3524 51.7032C43.3524 51.7032 43.3294 51.7511 43.2919 51.8323C42.9774 52.4469 42.7919 52.7865 42.7919 52.7865C42.7919 52.7865 42.794 52.7907 42.7982 52.799C42.5482 53.2511 42.2815 53.6699 42.1503 53.6699C42.0586 53.6699 41.8732 52.4678 42.1899 50.8178C42.8565 47.3594 44.4544 41.9678 44.4399 41.7803C44.4315 41.6844 44.7378 40.7449 43.3961 40.2532C42.0919 39.7761 41.6274 40.5719 41.5086 40.574C41.394 40.5761 41.3086 40.8553 41.3086 40.8553C41.3086 40.8553 42.7607 34.7907 38.5378 34.7907C35.8961 34.7907 32.2378 37.6803 30.4357 40.299C29.2982 40.9199 26.8628 42.249 24.2815 43.6678C23.2899 44.2136 22.2774 44.7699 21.3169 45.299C21.2524 45.2261 21.1857 45.1553 21.119 45.0824C15.9961 39.6178 6.5294 35.7532 6.9294 28.4053C7.0753 25.7344 8.0044 18.7011 25.1232 10.1719C39.1461 3.18441 50.3732 5.10741 52.3128 9.36781C55.0836 15.4574 46.3128 26.7719 31.7503 28.4053C26.2024 29.0282 23.2794 26.8761 22.5524 26.0761C21.7878 25.2324 21.6732 25.1949 21.3878 25.3532C20.9232 25.6115 21.2169 26.3553 21.3878 26.799C21.8232 27.9303 23.6065 29.9365 26.6482 30.9365C29.3253 31.8157 35.8399 32.2969 43.7169 29.249C52.5419 25.8365 59.4315 16.3407 57.4065 8.40531C55.3482 0.33441 41.9649 -2.31969 29.2982 2.18031C21.7503 4.85941 13.5899 9.06361 7.7211 14.5511C0.744026 21.0761 -0.368474 26.7574 0.0898556 29.1303C1.71903 37.5636 13.3419 43.0553 17.9961 47.124C17.7669 47.2511 17.5503 47.3699 17.3544 47.4782C15.0211 48.6324 6.1607 53.2698 3.94403 58.1678C1.42944 63.724 4.34403 67.7115 6.2732 68.249C12.2503 69.9115 18.3836 66.9199 21.6815 62.0032C24.9774 57.0886 24.5753 50.6865 23.0628 47.7657C23.044 47.7303 23.0232 47.6949 23.0044 47.6574C23.6065 47.3011 24.2211 46.9386 24.8294 46.5803C26.0169 45.8824 27.1836 45.2324 28.194 44.6824C27.6274 46.2324 27.2128 48.0928 26.9982 50.7782C26.744 53.9323 28.0378 58.0094 29.7294 59.6136C30.4753 60.3198 31.3711 60.3365 31.9378 60.3365C33.9065 60.3365 34.8044 58.699 35.794 56.7615C37.0065 54.3865 38.0836 51.6199 38.0836 51.6199C38.0836 51.6199 36.7336 59.0907 40.4128 59.0907C41.7544 59.0907 43.1024 57.3511 43.7044 56.4657C43.7065 56.4761 43.7065 56.4803 43.7065 56.4803C43.7065 56.4803 43.7419 56.4219 43.8107 56.3074C43.9503 56.0949 44.0294 55.9594 44.0294 55.9594C44.0294 55.9594 44.0315 55.9448 44.0357 55.9199C44.5753 54.9844 45.7711 52.8511 47.5628 49.3324C49.8794 44.7865 52.1003 39.0907 52.1003 39.0907C52.1003 39.0907 52.3065 40.4824 52.9836 42.7865C53.3815 44.1407 54.2274 45.6386 54.8961 47.0761C54.3586 47.8219 54.0294 48.249 54.0294 48.249C54.0294 48.249 54.0315 48.2574 54.0378 48.2719C53.6086 48.8428 53.1274 49.4574 52.6232 50.0574C50.794 52.2344 48.6169 54.7219 48.3253 55.4386C47.9815 56.2844 48.0628 56.9053 48.7274 57.4074C49.2128 57.7719 50.0753 57.8303 50.9774 57.7699C52.6211 57.6594 53.7753 57.2511 54.3461 57.0032C55.2357 56.6886 56.2711 56.1949 57.2419 55.4803C59.0357 54.1615 60.1169 52.2761 60.0128 49.7761C59.9544 48.399 59.5169 47.0344 58.9607 45.7469C59.1232 45.5136 59.2857 45.2761 59.4503 45.0386C62.2774 40.9053 64.4711 36.3636 64.4711 36.3636C64.4711 36.3636 64.6774 37.7553 65.3544 40.0594C65.6961 41.224 66.3732 42.4969 66.9815 43.7428C64.3232 45.9032 62.6753 48.4136 62.1024 50.0594C61.044 53.1053 61.8732 54.4844 63.4274 54.799C64.1315 54.9407 65.1274 54.6178 65.8753 54.3011C66.8065 53.9928 67.9253 53.4782 68.9711 52.7094C70.7649 51.3907 72.4898 49.5449 72.3857 47.0469C72.3378 45.9094 72.0294 44.7803 71.6107 43.6969C73.8649 42.7574 76.7815 42.2365 80.4982 42.6699C88.4711 43.6011 90.0336 48.5782 89.7357 50.6615C89.4357 52.7449 87.7649 53.8907 87.2044 54.2365C86.6461 54.5824 86.4753 54.7032 86.5211 54.9594C86.5899 55.3324 86.8482 55.3199 87.3253 55.2386C87.9815 55.1282 91.5107 53.5449 91.6628 49.699C91.8524 44.8115 87.1753 39.449 78.8899 39.4928ZM17.4378 60.2094C14.7961 63.0907 11.1086 64.1782 9.5253 63.2615C7.8169 62.2719 8.49399 58.0303 11.7336 54.9719C13.7086 53.1094 16.2586 51.3928 17.9503 50.3365C18.3357 50.1053 18.9003 49.7657 19.5878 49.3532C19.7024 49.2886 19.7669 49.2532 19.7669 49.2532L19.7649 49.249C19.8982 49.1699 20.0336 49.0886 20.1732 49.0032C21.3544 53.3553 20.2107 57.1865 17.4378 60.2094ZM36.6774 47.1323C35.7586 49.374 33.8336 55.1115 32.6607 54.8032C31.6544 54.5386 31.0419 50.1782 32.4607 45.8865C33.1732 43.7261 34.6982 41.1448 35.594 40.1428C37.0357 38.5303 38.6232 38.0032 39.0086 38.6574C39.4982 39.4907 37.2544 45.7261 36.6774 47.1323ZM52.5711 54.7157C52.1815 54.9199 51.8232 55.0469 51.6586 54.949C51.5357 54.8761 51.819 54.6073 51.819 54.6073C51.819 54.6073 53.8065 52.4678 54.5899 51.4948C55.0461 50.9282 55.5732 50.2553 56.1482 49.5053C56.1524 49.5803 56.1544 49.6553 56.1544 49.7282C56.1503 52.2907 53.6753 54.0199 52.5711 54.7157ZM64.8149 51.924C64.5232 51.7178 64.5732 51.049 65.5294 48.9636C65.9044 48.1449 66.7628 46.7678 68.2503 45.4511C68.4232 45.9928 68.5273 46.5115 68.5253 46.9949C68.5065 50.2199 66.2065 51.424 64.8149 51.924Z" fill="#F06292"/>
</svg>
