<svg width="44" height="94" viewBox="0 0 44 94" fill="none" xmlns="http://www.w3.org/2000/svg">
<path d="M41.1072 0.000630835C40.9798 0.00556083 40.8806 0.0411108 40.8142 0.104391L29.2053 13.8922L26.8372 22.0343C25.2278 21.9812 23.5659 21.961 21.8628 21.961C9.7972 21.961 0 23.2392 0 24.8236C0 28.6048 43.7195 28.6048 43.7195 24.8236C43.7195 23.6517 38.4856 22.6617 30.9387 22.193L32.8125 15.4913L43.6707 2.42983L43.689 2.41152C43.9327 2.15839 43.4569 1.39867 42.6819 0.733051C42.1006 0.231491 41.4894 -0.0141692 41.1072 0.000630835ZM25.946 25.2386L25.9033 25.3668C25.8846 25.3824 25.885 25.403 25.885 25.4217C25.885 25.6561 26.8315 25.849 27.9846 25.849C29.1377 25.849 30.0903 25.6561 30.0903 25.4217L30.127 25.2753C30.4301 25.3846 30.5969 25.5099 30.5969 25.6537C30.5969 26.0318 29.4257 26.3407 27.9663 26.3251C26.5476 26.3251 25.3723 26.0379 25.3723 25.6598C25.3723 25.4973 25.6054 25.348 25.946 25.2386ZM43.4753 26.3129C37.691 29.3972 6.0931 29.4181 0.2869 26.3556L2.8564 48.9569C3.9721 45.3538 6.7936 40.4893 10.4248 39.0143C11.6154 38.5268 12.8244 38.5291 13.9587 39.1791C14.9431 39.7197 15.7754 40.8531 15.8691 41.3031C16.0973 42.475 15.4926 42.9388 15.0208 42.9388C14.452 42.9388 14.0173 42.1141 13.7329 41.6266C12.9579 40.3109 11.7847 40.2544 10.5347 41.12C9.2284 42.02 8.0936 43.5336 7.2998 44.8492C6.3342 46.4336 5.5199 48.1805 5.0293 49.9274C4.7449 50.9367 4.4851 52.5539 4.9194 53.5101C5.1101 53.907 5.3909 54.1571 5.8472 54.1571C6.794 54.1571 8.1693 52.9695 8.8318 52.3382C9.6818 51.5289 10.7782 50.2668 11.1938 49.4574L12.1826 46.6681C12.6732 45.4431 14.0503 45.6587 14.0503 46.6681C14.0503 48.5056 13.3549 49.1181 12.1643 52.9181C11.0674 56.4306 10.7239 57.569 10.7239 57.569C10.5926 58.0721 10.0806 58.9178 9.5337 58.9178C9.3056 58.9178 9.1392 58.8419 9.0454 58.6981C8.8548 58.445 8.8741 57.7502 8.8928 57.569C8.9303 56.994 10.0816 53.5686 10.2722 53.0279C9.8941 53.4248 9.4981 53.8244 9.0637 54.2181C8.0418 55.1369 6.3988 56.3422 4.9988 56.3422C4.355 56.3422 3.943 56.1776 3.5461 55.9088L4.9805 70.246C5.3586 71.146 12.3958 73.3282 21.6614 73.3282C30.9458 73.3282 37.9768 71.1303 38.3362 70.246L40.3992 53.2111C39.321 54.1486 38.0756 55.3033 36.6943 55.8783C35.6725 56.2939 33.4045 56.5593 33.4045 54.8468C33.4045 53.9093 35.1267 52.1834 36.1267 50.9772C36.3923 50.6709 37.0117 49.9153 37.0117 49.5184C37.0117 48.9965 35.8804 49.1171 34.8022 49.964C34.196 50.4515 33.6262 51.1032 33.1543 51.7157C32.3418 52.7969 31.9084 53.73 31.5491 54.505C30.3772 57.0612 30.7748 56.0537 29.8279 58.4662C28.881 60.8631 29.0358 60.5901 28.8452 60.9869C28.6765 61.3307 28.429 61.6206 28.0884 61.7987C27.729 61.9799 27.2379 61.9594 26.9348 61.7438C26.7661 61.6344 26.6846 61.4004 26.6846 61.0785C26.6846 60.916 26.7081 60.7527 26.7456 60.5902C27.03 59.4902 28.2212 57.3322 29.5837 54.4134C29.8869 53.7478 29.7708 53.9453 29.7302 53.9984C28.5583 55.0797 27.6674 55.603 27.0081 55.8905C25.9112 56.3592 24.5488 56.3582 24.2676 55.152C24.2488 55.0801 24.2497 55.0041 24.231 54.9322C21.9997 56.5885 19.6373 57.0391 20.4529 53.4735C19.5841 54.9516 18.0672 56.159 16.2109 56.159C15.4359 56.159 14.8687 55.9091 14.5874 55.2435C14.153 54.2529 14.8322 52.5559 15.4541 50.9527C15.776 50.1434 16.2155 49.1696 16.803 48.0353C17.1061 47.4228 17.5936 47.061 18.2373 47.2235C18.3498 47.261 18.4487 47.2985 18.5425 47.3517C19.0331 47.6767 18.8443 48.1581 18.5974 48.6456C17.8787 49.9956 17.2552 50.9869 16.8396 52.3932C16.6708 52.9869 16.4579 54.0167 17.1204 54.0167C17.5735 54.0167 18.0078 53.8709 18.4265 53.5834C19.2953 52.9709 19.9949 52.0542 20.5261 51.1542C20.9042 50.5073 21.36 49.6605 21.5881 48.9386C21.6819 48.6323 21.7987 48.3438 21.9299 48.0719C22.1393 47.6219 22.4188 47.1564 22.9126 47.1564C23.1595 47.1564 23.3637 47.2468 23.5168 47.4249C23.8387 47.8218 23.7681 48.2296 23.5962 48.6639C23.2181 49.6733 22.7088 50.5761 22.29 51.673C22.0432 52.3042 21.7773 53.1131 21.7773 53.7787C21.7773 54.3912 22.4777 54.2454 23.0652 53.9923C23.5183 53.7954 23.9718 53.4929 24.353 53.1866C24.5812 52.3054 24.5207 52.5003 29.3457 40.9003C29.5926 40.3065 30.0461 40.0519 30.4993 40.0519C30.7274 40.0519 30.9129 40.1283 31.1035 40.2533C31.4254 40.4877 31.4301 40.986 31.2988 41.3641C31.1676 41.7079 31.1818 41.6 30.4443 43.2562C29.46 45.4343 28.8199 47.0057 27.948 49.0057C27.5886 49.8339 26.4937 52.4093 26.3062 53.0218C26.1937 53.4187 26.0579 54.0655 26.4954 54.0655C27.5172 54.0655 30.1467 51.7047 30.8655 51.0016C30.903 50.9485 30.9614 50.9292 31.0364 50.8917C31.1489 50.548 31.26 50.2279 31.3538 49.9029C31.6194 49.2186 31.8671 48.4206 32.3608 47.8644C32.5108 47.6831 32.6799 47.5775 32.8674 47.5775C33.3956 47.5775 33.6609 47.7915 33.6609 48.2977C33.6609 48.4946 33.5315 49.2178 33.4534 49.4147C33.719 49.1459 33.9986 48.8777 34.3018 48.609C37.1393 46.1059 39.1602 47.3831 39.1602 48.6456C39.1602 49.9769 37.479 51.8289 36.554 52.857C36.2508 53.2008 35.6267 53.8294 35.6079 54.0106C35.6079 54.245 35.7761 54.3402 36.0229 54.3402C36.4011 54.3402 37.2335 53.7074 37.5366 53.4918C38.4835 52.7887 39.7645 51.709 40.6738 50.9527L43.4753 26.3129ZM6.0303 71.9733L8.8501 76.5509L9.9487 90.8514C9.9487 92.4546 15.2999 93.7506 21.8811 93.7506C28.4624 93.7506 33.8135 92.4546 33.8135 90.8514L34.6863 76.4044L37.3474 71.9733C29.8568 74.9826 13.824 75.0889 6.0303 71.9733Z" fill="#E44849"/>
</svg>
