<svg width="28" height="18" viewBox="0 0 28 18" fill="none" xmlns="http://www.w3.org/2000/svg">
<path d="M19 0.25C17.8509 0.25 16.7131 0.47633 15.6515 0.91605C14.5899 1.35578 13.6253 2.0003 12.8128 2.81282C12.0003 3.62533 11.3558 4.5899 10.9161 5.6515C10.4763 6.7131 10.25 7.8509 10.25 9C10.25 10.1491 10.4763 11.2869 10.9161 12.3485C11.3558 13.4101 12.0003 14.3747 12.8128 15.1872C13.6253 15.9997 14.5899 16.6442 15.6515 17.0839C16.7131 17.5237 17.8509 17.75 19 17.75C20.1491 17.75 21.2869 17.5237 22.3485 17.0839C23.4101 16.6442 24.3747 15.9997 25.1872 15.1872C25.9997 14.3747 26.6442 13.4101 27.0839 12.3485C27.5237 11.2869 27.75 10.1491 27.75 9C27.75 7.8509 27.5237 6.7131 27.0839 5.6515C26.6442 4.5899 25.9997 3.62533 25.1872 2.81282C24.3747 2.0003 23.4101 1.35578 22.3485 0.91605C21.2869 0.47633 20.1491 0.25 19 0.25Z" fill="#FF9800"/>
<path d="M10.25 9C10.25 11.9718 11.735 14.5937 14 16.175C16.265 14.5937 17.75 11.9718 17.75 9C17.75 6.0281 16.265 3.4062 14 1.82495C11.735 3.4062 10.25 6.0281 10.25 9Z" fill="#FF3D00"/>
<path d="M9 0.25C7.85093 0.25 6.71312 0.47633 5.65152 0.91605C4.58992 1.35578 3.62533 2.0003 2.81282 2.81282C2.0003 3.62533 1.35578 4.5899 0.91605 5.6515C0.47633 6.7131 0.25 7.8509 0.25 9C0.25 10.1491 0.47633 11.2869 0.91605 12.3485C1.35578 13.4101 2.0003 14.3747 2.81282 15.1872C3.62533 15.9997 4.58992 16.6442 5.65152 17.0839C6.71312 17.5237 7.85093 17.75 9 17.75C10.1491 17.75 11.2869 17.5237 12.3485 17.0839C13.4101 16.6442 14.3747 15.9997 15.1872 15.1872C15.9997 14.3747 16.6442 13.4101 17.0839 12.3485C17.5237 11.2869 17.75 10.1491 17.75 9C17.75 7.8509 17.5237 6.7131 17.0839 5.6515C16.6442 4.5899 15.9997 3.62533 15.1872 2.81282C14.3747 2.0003 13.4101 1.35578 12.3485 0.91605C11.2869 0.47633 10.1491 0.25 9 0.25Z" fill="#D50000"/>
</svg>
