<svg width="28" height="20" viewBox="0 0 28 20" fill="none" xmlns="http://www.w3.org/2000/svg">
<path d="M27.125 16.875C27.125 18.2556 26.0056 19.375 24.625 19.375H3.375C1.99437 19.375 0.875 18.2556 0.875 16.875V3.125C0.875 1.74437 1.99437 0.625 3.375 0.625H24.625C26.0056 0.625 27.125 1.74437 27.125 3.125V16.875Z" fill="#1565C0"/>
<path d="M8.49111 6.87487L6.84986 11.7699C6.84986 11.7699 6.43299 9.69927 6.39174 9.43927C5.45736 7.30737 4.07861 7.42607 4.07861 7.42607L5.70361 13.7499V13.7486H7.67924L10.4111 6.87487H8.49111ZM10.0555 13.7499H11.8499L12.9349 6.87487H11.118L10.0555 13.7499ZM22.7549 6.87487H20.8667L17.923 13.7499H19.7055L20.073 12.768H22.3205L22.5117 13.7499H24.1449L22.7549 6.87487ZM20.5705 11.4549L21.5474 8.85677L22.0586 11.4549H20.5705ZM15.4805 8.87857C15.4805 8.49987 15.7917 8.21797 16.6842 8.21797C17.2642 8.21797 17.9286 8.63927 17.9286 8.63927L18.2199 7.19607C18.2199 7.19607 17.3711 6.87427 16.538 6.87427C14.6511 6.87427 13.678 7.77677 13.678 8.91927C13.678 10.9855 16.1649 10.7024 16.1649 11.7636C16.1649 11.9455 16.0205 12.3661 14.9849 12.3661C13.9461 12.3661 13.2605 11.9855 13.2605 11.9855L12.9511 13.3705C12.9511 13.3705 13.6155 13.7493 14.8992 13.7493C16.1861 13.7493 17.9711 12.7868 17.9711 11.4043C17.9711 9.74107 15.4805 9.62107 15.4805 8.87857Z" fill="white"/>
<path d="M6.63238 10.5906L6.02863 7.62308C6.02863 7.62308 5.75551 6.97998 5.04551 6.97998C4.33551 6.97998 2.27051 6.97998 2.27051 6.97998C2.27051 6.97998 5.80863 8.02498 6.63238 10.5906Z" fill="#FFC107"/>
</svg>
