<svg width="98" height="76" viewBox="0 0 98 76" fill="none" xmlns="http://www.w3.org/2000/svg">
<rect width="98" height="76" rx="10" fill="#F0F2F5"/>
<path d="M10.4893 38.251C10.4893 32.0498 12.1576 27.5007 15.4941 24.6035C18.8307 21.7064 23.7298 20.2578 30.1914 20.2578C36.6693 20.2578 41.5521 21.6331 44.8398 24.3838C48.1439 27.1344 49.7959 31.5859 49.7959 37.7383C49.7959 40.9935 49.1611 43.6465 47.8916 45.6973C46.9964 47.1784 46.0361 48.4967 45.0107 49.6523H48.8926C49.5599 49.6523 50.1133 49.8802 50.5527 50.3359C50.9922 50.7754 51.2119 51.3125 51.2119 51.9473V53.9492C51.2119 54.584 50.9922 55.1292 50.5527 55.585C50.1133 56.0244 49.5599 56.2441 48.8926 56.2441H30.1426C23.7135 56.2441 18.8307 54.7956 15.4941 51.8984C12.1576 49.0013 10.4893 44.4521 10.4893 38.251ZM30.1426 49.6523C37.1087 49.6523 40.5918 45.681 40.5918 37.7383C40.5918 34.0436 39.7699 31.3092 38.126 29.5352C36.4821 27.7448 33.8291 26.8496 30.167 26.8496C26.5212 26.8496 23.86 27.818 22.1836 29.7549C20.5234 31.6917 19.6934 34.5238 19.6934 38.251C19.6934 41.9782 20.5234 44.8102 22.1836 46.7471C23.86 48.6839 26.513 49.6523 30.1426 49.6523ZM54.7275 53.6562V23.2607C54.7275 22.626 54.9554 22.0889 55.4111 21.6494C55.8669 21.21 56.4121 20.9902 57.0469 20.9902H85.1963C85.8311 20.9902 86.3682 21.2181 86.8076 21.6738C87.2633 22.1296 87.4912 22.6748 87.4912 23.3096V25.6045C87.4912 26.2393 87.2633 26.7845 86.8076 27.2402C86.3682 27.6797 85.8311 27.8994 85.1963 27.8994H63.9316V36.4932H81.2412C81.876 36.4932 82.4131 36.721 82.8525 37.1768C83.3083 37.6325 83.5361 38.1696 83.5361 38.7881V41.1074C83.5361 41.7422 83.3083 42.2874 82.8525 42.7432C82.4131 43.1826 81.876 43.4023 81.2412 43.4023H63.9316V53.6562C63.9316 54.3236 63.7038 54.8851 63.248 55.3408C62.8086 55.7803 62.2715 56 61.6367 56H57.0469C56.4121 56 55.8669 55.7803 55.4111 55.3408C54.9554 54.8851 54.7275 54.3236 54.7275 53.6562Z" fill="#1B74E4"/>
</svg>
