<svg width="25" height="25" viewBox="0 0 25 25" fill="none" xmlns="http://www.w3.org/2000/svg">
<path d="M0 3.90625C0 3.69905 0.08231 3.50034 0.228823 3.35382C0.375336 3.20731 0.57405 3.125 0.78125 3.125H3.125C3.29927 3.12505 3.46852 3.18336 3.60583 3.29066C3.74314 3.39797 3.84064 3.5481 3.88281 3.71719L4.51562 6.25H22.6562C22.7749 6.25003 22.892 6.2771 22.9987 6.32915C23.1053 6.38119 23.1987 6.45685 23.2718 6.55037C23.3448 6.6439 23.3956 6.75284 23.4202 6.86892C23.4449 6.985 23.4428 7.10517 23.4141 7.22031L21.0703 16.5953C21.0281 16.7644 20.9306 16.9145 20.7933 17.0218C20.656 17.1291 20.4868 17.1875 20.3125 17.1875H6.25C6.07573 17.1875 5.90648 17.1291 5.76917 17.0218C5.63186 16.9145 5.53436 16.7644 5.49219 16.5953L2.51562 4.6875H0.78125C0.57405 4.6875 0.375336 4.60519 0.228823 4.45868C0.08231 4.31216 0 4.11345 0 3.90625ZM4.90625 7.8125L5.6875 10.9375H7.8125V7.8125H4.90625ZM9.375 7.8125V10.9375H12.5V7.8125H9.375ZM14.0625 7.8125V10.9375H17.1875V7.8125H14.0625ZM18.75 7.8125V10.9375H20.875L21.6562 7.8125H18.75ZM20.4844 12.5H18.75V15.625H19.7031L20.4844 12.5ZM17.1875 12.5H14.0625V15.625H17.1875V12.5ZM12.5 12.5H9.375V15.625H12.5V12.5ZM7.8125 12.5H6.07812L6.85938 15.625H7.8125V12.5ZM7.8125 20.3125C7.3981 20.3125 7.00067 20.4771 6.70765 20.7701C6.41462 21.0632 6.25 21.4606 6.25 21.875C6.25 22.2894 6.41462 22.6868 6.70765 22.9799C7.00067 23.2729 7.3981 23.4375 7.8125 23.4375C8.2269 23.4375 8.62433 23.2729 8.91735 22.9799C9.21038 22.6868 9.375 22.2894 9.375 21.875C9.375 21.4606 9.21038 21.0632 8.91735 20.7701C8.62433 20.4771 8.2269 20.3125 7.8125 20.3125ZM4.6875 21.875C4.6875 21.0462 5.01674 20.2513 5.60279 19.6653C6.18884 19.0792 6.9837 18.75 7.8125 18.75C8.6413 18.75 9.43616 19.0792 10.0222 19.6653C10.6083 20.2513 10.9375 21.0462 10.9375 21.875C10.9375 22.7038 10.6083 23.4987 10.0222 24.0847C9.43616 24.6708 8.6413 25 7.8125 25C6.9837 25 6.18884 24.6708 5.60279 24.0847C5.01674 23.4987 4.6875 22.7038 4.6875 21.875ZM18.75 20.3125C18.3356 20.3125 17.9382 20.4771 17.6451 20.7701C17.3521 21.0632 17.1875 21.4606 17.1875 21.875C17.1875 22.2894 17.3521 22.6868 17.6451 22.9799C17.9382 23.2729 18.3356 23.4375 18.75 23.4375C19.1644 23.4375 19.5618 23.2729 19.8549 22.9799C20.1479 22.6868 20.3125 22.2894 20.3125 21.875C20.3125 21.4606 20.1479 21.0632 19.8549 20.7701C19.5618 20.4771 19.1644 20.3125 18.75 20.3125ZM15.625 21.875C15.625 21.0462 15.9542 20.2513 16.5403 19.6653C17.1263 19.0792 17.9212 18.75 18.75 18.75C19.5788 18.75 20.3737 19.0792 20.9597 19.6653C21.5458 20.2513 21.875 21.0462 21.875 21.875C21.875 22.7038 21.5458 23.4987 20.9597 24.0847C20.3737 24.6708 19.5788 25 18.75 25C17.9212 25 17.1263 24.6708 16.5403 24.0847C15.9542 23.4987 15.625 22.7038 15.625 21.875Z" fill="white"/>
</svg>
