<svg width="23" height="25" viewBox="0 0 23 25" fill="none" xmlns="http://www.w3.org/2000/svg">
<path d="M15.9187 0.19066C16.0033 0.264102 16.071 0.354848 16.1173 0.45675C16.1637 0.558652 16.1876 0.669329 16.1875 0.781285V1.56253H16.9688C17.5904 1.56253 18.1865 1.80946 18.626 2.249C19.0656 2.68854 19.3125 3.28468 19.3125 3.90628V23.4375H21.6562C21.8635 23.4375 22.0622 23.5198 22.2087 23.6664C22.3552 23.8129 22.4375 24.0116 22.4375 24.2188C22.4375 24.426 22.3552 24.6247 22.2087 24.7712C22.0622 24.9177 21.8635 25 21.6562 25H1.34375C1.13655 25 0.937836 24.9177 0.791323 24.7712C0.64481 24.6247 0.5625 24.426 0.5625 24.2188C0.5625 24.0116 0.64481 23.8129 0.791323 23.6664C0.937836 23.5198 1.13655 23.4375 1.34375 23.4375H3.6875V2.34378C3.68753 2.15555 3.75552 1.97366 3.87896 1.83156C4.0024 1.68946 4.173 1.5967 4.35938 1.57035L15.2969 0.0078471C15.4076 -0.00796236 15.5204 0.000177248 15.6277 0.0317158C15.735 0.0632543 15.8342 0.117457 15.9187 0.19066ZM16.9688 3.12503H16.1875V23.4375H17.75V3.90628C17.75 3.69908 17.6677 3.50037 17.5212 3.35386C17.3747 3.20734 17.176 3.12503 16.9688 3.12503ZM5.25 3.02191V23.4375H14.625V1.68285L5.25 3.02191Z" fill="#FF0000"/>
</svg>
