<svg width="104" height="25" viewBox="0 0 104 25" fill="none" xmlns="http://www.w3.org/2000/svg">
<path d="M0.498047 7.8418V6.92383C0.498047 6.6569 0.585938 6.43555 0.761719 6.25977C0.94401 6.08398 1.16211 5.99609 1.41602 5.99609H12.8223C13.0762 5.99609 13.291 6.08398 13.4668 6.25977C13.6491 6.43555 13.7402 6.6569 13.7402 6.92383V8.01758C13.7402 8.28451 13.6816 8.54167 13.5645 8.78906C13.4538 9.03646 13.3496 9.21224 13.252 9.31641L12.8223 9.75586L5.13672 17.2363H12.9199C13.1868 17.2363 13.4049 17.3242 13.5742 17.5C13.75 17.6758 13.8379 17.8971 13.8379 18.1641V19.082C13.8379 19.349 13.75 19.5703 13.5742 19.7461C13.4049 19.9154 13.1868 20 12.9199 20H1.58203C1.32812 20 1.11003 19.9154 0.927734 19.7461C0.751953 19.5703 0.664062 19.349 0.664062 19.082V17.998C0.664062 17.373 0.970052 16.7546 1.58203 16.1426L9.02344 8.75977H1.41602C1.16211 8.75977 0.94401 8.67513 0.761719 8.50586C0.585938 8.33008 0.498047 8.10872 0.498047 7.8418ZM16.2207 19.2969C15.3613 18.6979 14.9316 17.8516 14.9316 16.7578C14.9316 15.6641 15.3613 14.8242 16.2207 14.2383C17.0866 13.6523 18.1999 13.3594 19.5605 13.3594H22.793C22.793 12.5977 22.6335 12.0671 22.3145 11.7676C21.9954 11.4681 21.4355 11.3184 20.6348 11.3184C19.8405 11.3184 19.2806 11.5169 18.9551 11.9141C18.6361 12.3047 18.2422 12.5 17.7734 12.5H16.3184C16.1426 12.5 15.9961 12.4447 15.8789 12.334C15.7682 12.2168 15.7129 12.0736 15.7129 11.9043C15.7129 10.0358 17.487 9.10156 21.0352 9.10156C22.5846 9.10156 23.8281 9.44987 24.7656 10.1465C25.7031 10.8366 26.1719 11.9076 26.1719 13.3594V19.4043C26.1719 19.5801 26.1165 19.7233 26.0059 19.834C25.8952 19.9447 25.752 20 25.5762 20H23.6914C23.5156 20 23.3724 19.9447 23.2617 19.834C23.151 19.7168 23.0957 19.5736 23.0957 19.4043V19.1016C22.0671 19.8372 20.8789 20.2018 19.5312 20.1953C18.1901 20.1953 17.0866 19.8958 16.2207 19.2969ZM19.7949 15.5762C19.3392 15.5762 18.9779 15.6868 18.7109 15.9082C18.4505 16.1296 18.3203 16.416 18.3203 16.7676C18.3203 17.1191 18.457 17.4089 18.7305 17.6367C19.0039 17.8646 19.3913 17.9785 19.8926 17.9785C20.8952 17.9785 21.862 17.6855 22.793 17.0996V15.5762H19.7949ZM32.9199 19.1797C31.4421 19.1797 30.2474 18.7337 29.3359 17.8418C28.431 16.9499 27.9785 15.7129 27.9785 14.1309C27.9785 12.5488 28.4961 11.3151 29.5312 10.4297C30.5664 9.54427 32.0508 9.10156 33.9844 9.10156C34.9284 9.10156 35.9082 9.20898 36.9238 9.42383C37.9395 9.63216 38.7044 9.88932 39.2188 10.1953V19.2383C39.2188 20.6901 38.7402 21.7611 37.7832 22.4512C36.8262 23.1478 35.4818 23.4961 33.75 23.4961C32.0247 23.4961 30.6934 23.278 29.7559 22.8418C28.8249 22.4121 28.3594 21.6992 28.3594 20.7031C28.3594 20.5273 28.4147 20.3809 28.5254 20.2637C28.6426 20.153 28.7891 20.0977 28.9648 20.0977H30.4199C30.8887 20.0977 31.263 20.2702 31.543 20.6152C31.901 21.0579 32.5358 21.2793 33.4473 21.2793C34.3652 21.2793 34.9935 21.1296 35.332 20.8301C35.6706 20.5306 35.8398 20 35.8398 19.2383V18.7793C34.7982 19.0462 33.8249 19.1797 32.9199 19.1797ZM33.7793 11.4648C32.2363 11.4583 31.4648 12.3503 31.4648 14.1406C31.4648 15.9245 32.2168 16.8164 33.7207 16.8164C34.3457 16.8164 35.0521 16.7188 35.8398 16.5234V11.6797C35.2799 11.5299 34.5931 11.4583 33.7793 11.4648ZM41.6309 15.498V9.90234C41.6309 9.72656 41.6862 9.58333 41.7969 9.47266C41.9141 9.35547 42.0573 9.29688 42.2266 9.29688H44.4141C44.5833 9.29688 44.7233 9.35547 44.834 9.47266C44.9512 9.58333 45.0098 9.72656 45.0098 9.90234V15.498C45.0098 17.0605 45.6283 17.8418 46.8652 17.8418C47.679 17.8418 48.5547 17.373 49.4922 16.4355V9.90234C49.4922 9.72656 49.5475 9.58333 49.6582 9.47266C49.7754 9.35547 49.9186 9.29688 50.0879 9.29688H52.2656C52.4414 9.29688 52.5846 9.35547 52.6953 9.47266C52.8125 9.58333 52.8711 9.72656 52.8711 9.90234V19.4043C52.8711 19.5736 52.8125 19.7168 52.6953 19.834C52.5846 19.9447 52.4414 20 52.2656 20H50.0879C49.9186 20 49.7754 19.9447 49.6582 19.834C49.5475 19.7168 49.4922 19.5736 49.4922 19.4043V18.7793C48.3724 19.7233 47.1777 20.1953 45.9082 20.1953C44.6452 20.1953 43.6165 19.8112 42.8223 19.043C42.028 18.2682 41.6309 17.0866 41.6309 15.498ZM55.2832 7.25586V6.92383C55.2832 6.57878 55.3809 6.30534 55.5762 6.10352C55.778 5.90169 56.0547 5.80078 56.4062 5.80078H57.6172C57.9622 5.80078 58.2357 5.90169 58.4375 6.10352C58.6393 6.29883 58.7402 6.57227 58.7402 6.92383V7.25586C58.7402 7.60091 58.6393 7.87435 58.4375 8.07617C58.2422 8.27799 57.9688 8.37891 57.6172 8.37891H56.4062C56.0612 8.37891 55.7878 8.27799 55.5859 8.07617C55.3841 7.87435 55.2832 7.60091 55.2832 7.25586ZM55.3223 19.4043V10.1367C55.3223 9.96094 55.3776 9.81771 55.4883 9.70703C55.6055 9.59635 55.7487 9.54102 55.918 9.54102H58.1055C58.2812 9.54102 58.4245 9.59961 58.5352 9.7168C58.6458 9.82747 58.7012 9.96745 58.7012 10.1367V19.4043C58.7012 19.5801 58.6426 19.7233 58.5254 19.834C58.4147 19.9447 58.2747 20 58.1055 20H55.918C55.7422 20 55.599 19.9447 55.4883 19.834C55.3776 19.7233 55.3223 19.5801 55.3223 19.4043ZM60.5371 12.2559C60.5371 10.153 62.2331 9.10156 65.625 9.10156C69.1927 9.10156 70.9766 10.0358 70.9766 11.9043C70.9766 12.0736 70.9212 12.2168 70.8105 12.334C70.6999 12.4447 70.5566 12.5 70.3809 12.5H68.9258C68.457 12.5 68.0632 12.3047 67.7441 11.9141C67.4251 11.5169 66.7969 11.3184 65.8594 11.3184C64.5703 11.3184 63.9258 11.6309 63.9258 12.2559C63.9258 12.5488 64.1764 12.793 64.6777 12.9883C65.1855 13.1836 65.8008 13.3561 66.5234 13.5059C67.2526 13.6491 67.9785 13.8346 68.7012 14.0625C69.4238 14.2904 70.0358 14.6549 70.5371 15.1562C71.0449 15.651 71.2988 16.2793 71.2988 17.041C71.2988 19.1439 69.5085 20.1953 65.9277 20.1953C62.347 20.1953 60.5566 19.2643 60.5566 17.4023C60.5566 17.2266 60.612 17.0833 60.7227 16.9727C60.8398 16.8555 60.9863 16.7969 61.1621 16.7969H62.6172C63.0859 16.7969 63.4798 16.9954 63.7988 17.3926C64.1178 17.7832 64.7461 17.9785 65.6836 17.9785C67.1745 17.9785 67.9199 17.666 67.9199 17.041C67.9199 16.748 67.666 16.5039 67.1582 16.3086C66.6569 16.1133 66.0417 15.9408 65.3125 15.791C64.5833 15.6348 63.8574 15.446 63.1348 15.2246C62.4186 14.9967 61.8066 14.6322 61.2988 14.1309C60.791 13.6296 60.5371 13.0046 60.5371 12.2559ZM74.0332 18.7891C73.0176 17.8516 72.5098 16.4714 72.5098 14.6484C72.5098 12.819 73.0176 11.4388 74.0332 10.5078C75.0488 9.57031 76.5072 9.10156 78.4082 9.10156C80.3158 9.10156 81.7773 9.57031 82.793 10.5078C83.8086 11.4388 84.3164 12.819 84.3164 14.6484C84.3164 16.4714 83.8086 17.8516 82.793 18.7891C81.7773 19.7266 80.3158 20.1953 78.4082 20.1953C76.5072 20.1953 75.0488 19.7266 74.0332 18.7891ZM76.5039 12.1094C76.1003 12.6367 75.8984 13.4798 75.8984 14.6387C75.8984 15.7975 76.1003 16.6439 76.5039 17.1777C76.9076 17.7116 77.5423 17.9785 78.4082 17.9785C79.2806 17.9785 79.9186 17.7116 80.3223 17.1777C80.7324 16.6439 80.9375 15.7975 80.9375 14.6387C80.9375 13.4798 80.7324 12.6367 80.3223 12.1094C79.9186 11.582 79.2806 11.3184 78.4082 11.3184C77.5423 11.3184 76.9076 11.582 76.5039 12.1094ZM93.9648 8.28125L92.6172 8.11523C91.3216 8.11523 90.4785 8.29102 90.0879 8.64258C89.6973 8.98763 89.502 9.70703 89.502 10.8008V10.957H93.0371C93.2129 10.957 93.3561 11.0156 93.4668 11.1328C93.584 11.2435 93.6426 11.3867 93.6426 11.5625V12.7246C93.6426 12.9004 93.584 13.0436 93.4668 13.1543C93.3561 13.265 93.2129 13.3203 93.0371 13.3203H89.502V19.4043C89.502 19.5801 89.4434 19.7233 89.3262 19.834C89.2155 19.9447 89.0755 20 88.9062 20H86.7188C86.543 20 86.3997 19.9447 86.2891 19.834C86.1784 19.7233 86.123 19.5801 86.123 19.4043V10.8008C86.123 8.98438 86.5365 7.69857 87.3633 6.94336C88.1901 6.18164 89.6419 5.80078 91.7188 5.80078C92.7865 5.80078 93.5319 5.83984 93.9551 5.91797C94.3783 5.99609 94.6452 6.09375 94.7559 6.21094C94.8665 6.32161 94.9219 6.45182 94.9219 6.60156V7.67578C94.9219 7.85156 94.8633 7.99805 94.7461 8.11523C94.6354 8.22591 94.4954 8.28125 94.3262 8.28125H93.9648ZM100.928 17.8809L102.266 17.7637H102.627C102.803 17.7637 102.946 17.819 103.057 17.9297C103.174 18.0404 103.232 18.1836 103.232 18.3594V19.4043C103.232 19.5475 103.174 19.6777 103.057 19.7949C102.946 19.9056 102.803 19.974 102.627 20C101.963 20.1302 101.097 20.1953 100.029 20.1953C97.2298 20.1953 95.8301 18.7305 95.8301 15.8008V6.60156C95.8301 6.42578 95.8854 6.28255 95.9961 6.17188C96.1133 6.05469 96.2565 5.99609 96.4258 5.99609H98.6133C98.7826 5.99609 98.9225 6.05469 99.0332 6.17188C99.1504 6.28255 99.209 6.42578 99.209 6.60156V9.86328H101.934C102.103 9.86328 102.243 9.91862 102.354 10.0293C102.471 10.14 102.529 10.2832 102.529 10.459V11.6211C102.529 11.7969 102.471 11.9401 102.354 12.0508C102.243 12.1615 102.103 12.2168 101.934 12.2168H99.209V15.8008C99.209 16.4648 99.3652 16.9792 99.6777 17.3438C99.9902 17.7018 100.407 17.8809 100.928 17.8809Z" fill="white"/>
</svg>
